<?xml version="1.0" encoding="iso-8859-1"?>
<!-- Uploaded to: SVG Repo, www.svgrepo.com, Generator: SVG Repo Mixer Tools -->
<svg height="800px" width="800px" version="1.1" id="Layer_1" xmlns="http://www.w3.org/2000/svg" xmlns:xlink="http://www.w3.org/1999/xlink" 
	 viewBox="0 0 512 512" xml:space="preserve">
<circle style="fill:#273B7A;" cx="256" cy="256" r="256"/>
<path style="fill:#121149;" d="M288.425,509.964c109.799-13.877,197.904-97.304,218.831-204.748L328.832,126.792L202.318,305.176
	l27.522,27.522l-61.359,57.322L288.425,509.964z"/>
<path style="fill:#C92F00;" d="M321.746,184.027H190.254c-5.344,0-9.675-4.332-9.675-9.675v-40.988c0-5.344,4.332-9.675,9.675-9.675
	h131.493c5.344,0,9.675,4.332,9.675,9.675v40.988C331.421,179.695,327.089,184.027,321.746,184.027z"/>
<path style="fill:#930000;" d="M321.746,123.69h-65.458v60.337h65.458c5.342,0,9.675-4.332,9.675-9.675v-40.988
	C331.421,128.022,327.089,123.69,321.746,123.69z"/>
<path style="fill:#FFAD9E;" d="M179.209,395.205h153.584c7.573,0,13.714-6.139,13.714-13.714V167.572
	c0-7.573-6.139-13.714-13.714-13.714H179.209c-7.573,0-13.714,6.139-13.714,13.714v213.921
	C165.495,389.067,171.634,395.205,179.209,395.205z"/>
<g>
	<path style="fill:#FF6262;" d="M332.791,153.859h-76.504v241.347h76.503c7.573,0,13.714-6.141,13.714-13.714V167.572
		C346.505,159.999,340.365,153.859,332.791,153.859z"/>
	<path style="fill:#FF6262;" d="M193.834,224.251c-6.508,0-12.897,0.595-19.197,1.596v144.839c0,6.808,5.52,12.328,12.328,12.328
		h138.071c6.809,0,12.328-5.52,12.328-12.328V211.682C291.94,233.291,243.641,224.251,193.834,224.251z"/>
</g>
<path style="fill:#FF314F;" d="M256.288,226.095v156.92h68.748c6.809,0,12.328-5.52,12.328-12.328V211.684
	C311.205,224.127,284.093,226.401,256.288,226.095z"/>
<circle style="fill:#FFFFFF;" cx="225.832" cy="233.4" r="30.168"/>
<circle style="fill:#02B2B2;" cx="225.832" cy="233.4" r="12.067"/>
<circle style="fill:#273B7A;" cx="225.832" cy="233.4" r="6.034"/>
<circle style="fill:#FFFFFF;" cx="294.391" cy="343.092" r="30.168"/>
<circle style="fill:#02B2B2;" cx="294.391" cy="343.092" r="12.067"/>
<circle style="fill:#273B7A;" cx="294.391" cy="343.092" r="6.034"/>
<circle style="fill:#FFFFFF;" cx="293.702" cy="282.065" r="22.618"/>
<circle style="fill:#02B2B2;" cx="293.702" cy="282.065" r="9.051"/>
<circle style="fill:#273B7A;" cx="293.702" cy="282.065" r="4.525"/>
<circle style="fill:#FFFFFF;" cx="233.365" cy="330.3" r="18.284"/>
<circle style="fill:#02B2B2;" cx="233.365" cy="330.3" r="7.313"/>
<circle style="fill:#273B7A;" cx="233.365" cy="330.3" r="3.656"/>
</svg>